<?xml version="1.0" encoding="utf-8"?>
<!-- Generator: Adobe Illustrator 26.3.1, SVG Export Plug-In . SVG Version: 6.00 Build 0)  -->
<svg version="1.1" id="Layer_1" xmlns="http://www.w3.org/2000/svg" xmlns:xlink="http://www.w3.org/1999/xlink" x="0px" y="0px"
	 viewBox="0 0 531.2 493.6" style="enable-background:new 0 0 531.2 493.6;" xml:space="preserve">
<style type="text/css">
	.st0{fill:none;stroke:#FDE047;stroke-width:10;stroke-miterlimit:10;}
	.st1{enable-background:new    ;}
	.st2{fill:#181818;}
</style>
<path class="st0" d="M0,5h0.6"/>
<path class="st0" d="M51.7,33.1c-0.1-0.5,0.2-0.9,0.7-1c0,0,0.1,0,0.1,0c0,0,129.1-10.3,194-6.3h219c1.8,73.9,5.6,146.6,2.8,220.4
	c-1.9,50.4-4.9,101-0.2,151.2c2.2,23.4,4,69.1,4,69.1c0,0.6-0.4,1-1,1c0,0-168,1.2-252.9,1.2l-97.8-0.1H50c-0.6,0-1-0.4-1-1
	c0,0,4.5-247.6,10.1-373.5C60,75,51.7,33.1,51.7,33.1z"/>
<path class="st0" d="M58.9,463c0,0.6,0.5,1,1,1.1c0,0,56.3,6.5,85.2,7.5c15.9,0.5,31.8,2.1,47.7,3.3c92.2,7.4,277.9,4,277.9,4
	c0.5,0,1-0.5,1-1c0,0-3.2-63.8-4.4-96.2c-4.4-122.2-1.8-367-1.8-367c0-0.5-0.3-0.9-0.8-0.9c-0.1,0-0.1,0-0.2,0
	c0,0-49.1,5.2-74.2,7.3C277,30.5,50.4,26.9,50.4,26.9c-0.6,0-1,0.4-1,1L58.9,463z"/>
<path class="st0" d="M52.5,455.6c-0.5,0.1-0.9-0.2-1-0.7c0,0,0-0.1,0-0.1c0,0-10-129.1-6.1-194v-219c72-1.8,142.7-5.6,214.7-2.8
	c49.1,1.9,98.3,4.9,147.2,0.2c22.7-2.2,67.3-4,67.3-4c0.6,0,1,0.4,1,1c0,0,1.2,168,1.2,252.9l-0.1,97.8v70.5c0,0.6-0.4,1-1,1
	c0,0-241.1-4.5-363.7-10.1C93.3,447.3,52.5,455.6,52.5,455.6z"/>
<path class="st0" d="M471.1,448.5c0.6,0,1-0.5,1.1-1c0,0,6.3-56.3,7.3-85.2c0.5-16,2-31.8,3.3-47.7c7.2-92.2,3.9-277.9,3.9-277.9
	c0-0.6-0.4-1-1-1c0,0-62.1,3.2-93.6,4.3c-119,4.4-357.4,1.8-357.4,1.8c-0.5,0-0.9,0.4-0.9,0.9c0,0,0,0.1,0,0.1c0,0,5,49.1,7.1,74.2
	C50,230.3,46.4,457,46.4,457c0,0.6,0.4,1,1,1L471.1,448.5z"/>
<g class="st1">
	<path class="st2" d="M382.5,206.6c0,15.3-2.3,30.4-6.8,45.5c-4.5,15.1-11.2,29.3-20.1,42.8c-8.9,13.5-19.8,25.5-32.9,35.9
		c-13.1,10.4-28.1,18.6-45,24.6c-16.9,6-35.9,9-56.9,9c-3.3,0-7.6-0.1-12.9-0.3c-5.3-0.2-11-0.4-17.1-0.5
		c-6.1-0.1-12.3-0.2-18.8-0.2c-5.1,0-10.6,0.1-16.6,0.2c-6,0.1-11.6,0.2-16.8,0.3c-5.2,0.1-9.6,0.3-13.1,0.5l1-6.6
		c7.1-0.4,12.7-1.3,16.8-2.7c4.1-1.3,7.4-4,9.8-8c2.4-4,4.6-10,6.6-17.9l43.5-164.7c1.8-6.6,2.6-12,2.5-16.1c-0.1-4.1-1.8-7.1-5-9.1
		c-3.2-2-8.8-3.1-16.8-3.3l1-6.6c3.8,0.2,8.4,0.4,13.9,0.7c5.5,0.2,11.5,0.3,17.8,0.3c6.3,0,12.3,0,18.1,0c4.2-0.2,9.4-0.4,15.6-0.5
		c6.2-0.1,12.4-0.2,18.6-0.3c6.2-0.1,11.4-0.2,15.6-0.2c31.9,0,56.2,6.5,72.9,19.6C374.1,161.9,382.5,181.2,382.5,206.6z
		 M219.5,358.3c15.3,0,29-3,41.3-9c12.3-6,23.1-14.3,32.5-24.9c9.4-10.6,17.3-22.8,23.6-36.5c6.3-13.7,11.1-28.4,14.3-44
		c3.2-15.6,4.8-31.3,4.8-47c0-20.4-4.6-35.7-13.9-46.1c-9.3-10.4-24.5-15.6-45.5-15.6c-6,0-10.6,0.7-13.9,2.2c-3.3,1.4-6,4.2-8,8.3
		c-2,4.1-4,10.1-6,18.1l-43.5,166c-2,6.9-3.2,12.4-3.5,16.6c-0.3,4.2,0.8,7.3,3.5,9.1C207.8,357.4,212.6,358.3,219.5,358.3z"/>
</g>
</svg>
